# xmcd
#
# Track frame offsets: 
#        150
#        12384
#        25003
#        40648
#        56487
#        68895
#        79642
#        89606
#        100939
#        112215
#        123045
#        136695
#
# Disc length: 1968 seconds
#
# Revision: 0
# Processed by: cddbd v1.5.2PL0 Copyright (c) Steve Scherf et al.
# Submitted via: ExactAudioCopy v0.99pb4
#
DISCID=9207ae0c
DTITLE=Pacifik - Bonanza
DYEAR=1990
DGENRE=Country
TTITLE0=Pochod amerických námoøníkù
TTITLE1=Mìsíc nad Portlandem
TTITLE2=Bonanza
TTITLE3=Nashville
TTITLE4=Oregon
TTITLE5=Texaská hymna
TTITLE6=Zuzana
TTITLE7=Mùj rodný dùm
TTITLE8=Socha Svobody
TTITLE9=Cowboy z Cherokee
TTITLE10=Ïáblovo stádo
TTITLE11=Rodné údolí
EXTD=
EXTT0=
EXTT1=
EXTT2=
EXTT3=
EXTT4=
EXTT5=
EXTT6=
EXTT7=
EXTT8=
EXTT9=
EXTT10=
EXTT11=
PLAYORDER=
